Coordinates
nRows=6
nColumns=38

# SIMM Motion File Header:
name Coordinates
datacolumns 38
datarows 6
otherdata 1
range 1.69700000000000010000 1.70200000000000000000

Units are S.I. units (second, meters, Newtons, ...)
Angles are in degrees.

endheader
time	pelvis_tilt	pelvis_list	pelvis_rotation	pelvis_tx	pelvis_ty	pelvis_tz	hip_flexion_r	hip_adduction_r	hip_rotation_r	knee_angle_r	ankle_angle_r	subtalar_angle_r	mtp_angle_r	hip_flexion_l	hip_adduction_l	hip_rotation_l	knee_angle_l	ankle_angle_l	subtalar_angle_l	mtp_angle_l	lumbar_extension	lumbar_bending	lumbar_rotation	arm_flex_r	arm_add_r	arm_rot_r	elbow_flex_r	pro_sup_r	wrist_flex_r	wrist_dev_r	arm_flex_l	arm_add_l	arm_rot_l	elbow_flex_l	pro_sup_l	wrist_flex_l	wrist_dev_l
      1.69700000000000010000	     -9.76399001565328110000	     -1.52407631781850750000	     -3.06521084061566370000	      0.89941290241505556000	      0.99746974290971435000	     -0.33881031829297775000	      2.77776439622562110000	      9.85428687096207940000	      7.98468230591854860000	    -27.04143130414702500000	     15.35018215786265100000	     -0.00000000000007090779	     -0.00000000000006109149	     47.95170085425144200000	      2.60057589245522450000	      2.39322990377366860000	   -106.40071969140681000000	      3.67749234790727100000	     -0.00000000000001100091	      0.00000000000002254048	     -3.19465838267789380000	      5.48566738034396370000	     14.57767940345764400000	    -20.78071266968630900000	    -15.65204382723131500000	    -11.03895711739612100000	    124.87395800212379000000	     93.23681015767168400000	     -0.00000000000000041484	     -0.00000000000002970315	    -32.94740736141565700000	    -23.14767589660809600000	     -0.85035426373150524000	    123.20122173546632000000	     92.99398240042219800000	      0.00000000000000066326	      0.00000000000000128658
      1.69800000000000000000	     -9.73715592450270860000	     -1.38330165076595570000	     -3.03712760457384730000	      0.89984388403292670000	      0.99815847471654418000	     -0.33884393611636221000	      2.26197639823144450000	      9.63847888217199690000	      8.02847172808571050000	    -26.65801105281498800000	     14.69804895125580800000	     -0.00000000000007233018	     -0.00000000000006219126	     48.09675131317327900000	      2.75554143897980010000	      2.38320699186765150000	   -105.95863498900049000000	      3.70003315087026770000	     -0.00000000000001115084	      0.00000000000002294361	     -3.15087484363997960000	      5.31581936682658980000	     14.70607908018065800000	    -20.82715883434200100000	    -15.64042554783039100000	    -10.94483356165045700000	    125.09705430570337000000	     93.30758872134850900000	     -0.00000000000000040623	     -0.00000000000003018826	    -33.15819164064727400000	    -23.11104847937893700000	     -0.96962219012930628000	    123.31532555726135000000	     92.96346291769383200000	      0.00000000000000079402	      0.00000000000000128223
      1.69900000000000010000	     -9.70938072099267300000	     -1.23943790216255720000	     -3.00749321851430060000	      0.90028271693323858000	      0.99885251026265853000	     -0.33887958095939874000	      1.74546507244805760000	      9.41862367448157480000	      8.06629698716540670000	    -26.27009999314235600000	     14.02812208254792200000	     -0.00000000000007379205	     -0.00000000000006326171	     48.23549106845483400000	      2.91399092241568390000	      2.37150121392637030000	   -105.50908445740194000000	      3.72211322803274090000	     -0.00000000000001130046	      0.00000000000002338700	     -3.10730724227454710000	      5.14197741147785510000	     14.83016338863492600000	    -20.87342502596186500000	    -15.62637061566283400000	    -10.84952958681869900000	    125.31771412182924000000	     93.38523414661189300000	     -0.00000000000000039771	     -0.00000000000003067358	    -33.37273825668599200000	    -23.07179912085719000000	     -1.09318605155149260000	    123.43073104438372000000	     92.93298273523942000000	      0.00000000000000092520	      0.00000000000000126640
      1.70000000000000000000	     -9.68084914908022220000	     -1.09251074911405750000	     -2.97630198138795210000	      0.90072908925426376000	      0.99955118650493402000	     -0.33891733877008134000	      1.22854388154124350000	      9.19480778074211540000	      8.09782691098964410000	    -25.87777360955724900000	     13.34093643641620400000	     -0.00000000000007520079	     -0.00000000000006431365	     48.36815635775217700000	      3.07592833906723760000	      2.35820975167359230000	   -105.05214950185004000000	      3.74365938070862380000	     -0.00000000000001144755	      0.00000000000002382777	     -3.06379964472063590000	      4.96418820693883590000	     14.94989095202434500000	    -20.91949002768829400000	    -15.60993630800148100000	    -10.75304630467749300000	    125.53589044125728000000	     93.46958735546526500000	     -0.00000000000000038909	     -0.00000000000003115876	    -33.59106889762060200000	    -23.02987982221894800000	     -1.22096536511993790000	    123.54734684668992000000	     92.90234819806606500000	      0.00000000000000105664	      0.00000000000000122437
      1.70100000000000010000	     -9.65174780519010510000	     -0.94255931572501095000	     -2.94356049814095930000	      0.90118267105747019000	      1.00025383966563710000	     -0.33895728477947151000	      0.71153781871645627000	      8.96713639873649270000	      8.12274956177870240000	    -25.48114007363497500000	     12.63706941415674500000	     -0.00000000000007657462	     -0.00000000000006540020	     48.49498519156619400000	      3.24133585220913510000	      2.34343289852975150000	   -104.58791385709503000000	      3.76459727193471940000	     -0.00000000000001159221	      0.00000000000002424296	     -3.02019737494380800000	      4.78251548293276320000	     15.06524011803222700000	    -20.96533831570513900000	    -15.59118827725956400000	    -10.65538669807919600000	    125.75154401899728000000	     93.56046387647728600000	     -0.00000000000000038114	     -0.00000000000003164437	    -33.81319271905291400000	    -22.98524424451143800000	     -1.35286882591904470000	    123.66508224717833000000	     92.87137247685252800000	      0.00000000000000118806	      0.00000000000000116129
      1.70200000000000000000	     -9.62226454924993390000	     -0.78963837709272744000	     -2.90928358819620450000	      0.90164311414786502000	      1.00095980643683440000	     -0.33899948835113347000	      0.19478250383077769000	      8.73573543506717880000	      8.14077054048954270000	    -25.08034006316358200000	     11.91713955741464100000	     -0.00000000000007793023	     -0.00000000000006651841	     48.61621749143746700000	      3.41017510349207950000	      2.32727822933426600000	   -104.11646442351513000000	      3.78485143374155620000	     -0.00000000000001173884	      0.00000000000002465999	     -2.97634742078088490000	      4.59704243401401150000	     15.17620502240360400000	    -21.01095979261245400000	    -15.57020064481023900000	    -10.55655578456884700000	    125.96464326131624000000	     93.65765450702188800000	     -0.00000000000000037323	     -0.00000000000003212963	    -34.03910608497053400000	    -22.93784779663735000000	     -1.48879453524349350000	    123.78384723571074000000	     92.83987637896922300000	      0.00000000000000131944	      0.00000000000000108779
